<svg xmlns="http://www.w3.org/2000/svg" xmlns:xlink="http://www.w3.org/1999/xlink" width="800" zoomAndPan="magnify" viewBox="0 0 600 599.999999" height="800" preserveAspectRatio="xMidYMid meet" version="1.0"><defs><clipPath id="d0c8d3bd00"><path d="M 46.875 0 L 553.125 0 L 553.125 600 L 46.875 600 Z M 46.875 0 " clip-rule="nonzero"/></clipPath><clipPath id="d898c61b59"><path d="M 238 183.171875 L 398 183.171875 L 398 417.171875 L 238 417.171875 Z M 238 183.171875 " clip-rule="nonzero"/></clipPath></defs><g clip-path="url(#d0c8d3bd00)"><path fill="#ffd43b" d="M 243.515625 599.636719 C 135.097656 599.636719 46.890625 511.445312 46.890625 403.039062 L 46.890625 220.085938 L 200.613281 220.085938 L 200.613281 405.554688 C 200.613281 427.8125 218.726562 445.925781 240.992188 445.925781 L 451.351562 445.925781 L 552.957031 599.636719 Z M 205.390625 153.996094 L 101.898438 0.292969 L 450.785156 0.292969 L 553.109375 153.996094 Z M 205.390625 153.996094 " fill-opacity="1" fill-rule="nonzero"/></g><g clip-path="url(#d898c61b59)"><path fill="#ffd43b" d="M 252.074219 417.527344 L 329.796875 417.527344 L 329.796875 374.222656 C 329.804688 373.433594 329.851562 372.640625 329.9375 371.855469 C 330.019531 371.066406 330.144531 370.285156 330.304688 369.511719 C 330.464844 368.738281 330.660156 367.972656 330.898438 367.214844 C 331.132812 366.460938 331.402344 365.714844 331.710938 364.988281 C 332.019531 364.257812 332.363281 363.546875 332.738281 362.847656 C 333.117188 362.152344 333.527344 361.476562 333.972656 360.820312 C 334.414062 360.164062 334.890625 359.53125 335.394531 358.921875 C 335.898438 358.3125 336.433594 357.730469 336.996094 357.171875 C 337.558594 356.613281 338.144531 356.085938 338.757812 355.585938 C 339.371094 355.085938 340.007812 354.617188 340.667969 354.179688 C 341.328125 353.742188 342.007812 353.335938 342.707031 352.964844 C 343.40625 352.59375 344.121094 352.257812 344.851562 351.953125 C 345.585938 351.652344 346.328125 351.386719 347.085938 351.15625 C 347.84375 350.929688 348.613281 350.738281 349.390625 350.582031 C 350.164062 350.429688 350.949219 350.3125 351.734375 350.234375 C 352.523438 350.15625 353.3125 350.117188 354.105469 350.117188 L 397.347656 350.117188 L 397.347656 197.257812 C 397.355469 196.371094 397.273438 195.488281 397.105469 194.617188 C 396.9375 193.742188 396.683594 192.894531 396.347656 192.074219 C 396.007812 191.25 395.59375 190.46875 395.101562 189.730469 C 394.609375 188.988281 394.050781 188.304688 393.421875 187.675781 C 392.792969 187.046875 392.109375 186.484375 391.367188 185.992188 C 390.628906 185.5 389.847656 185.085938 389.027344 184.746094 C 388.203125 184.410156 387.355469 184.15625 386.484375 183.984375 C 385.609375 183.816406 384.730469 183.734375 383.839844 183.738281 L 252.074219 183.738281 C 251.179688 183.730469 250.289062 183.8125 249.410156 183.976562 C 248.53125 184.144531 247.675781 184.398438 246.847656 184.730469 C 246.015625 185.066406 245.226562 185.480469 244.476562 185.972656 C 243.730469 186.464844 243.035156 187.023438 242.394531 187.648438 C 241.757812 188.277344 241.1875 188.960938 240.683594 189.703125 C 240.179688 190.441406 239.75 191.226562 239.402344 192.050781 C 239.050781 192.875 238.785156 193.722656 238.605469 194.601562 C 238.421875 195.476562 238.328125 196.363281 238.320312 197.257812 L 238.320312 404.019531 C 238.328125 404.914062 238.421875 405.796875 238.605469 406.675781 C 238.789062 407.550781 239.054688 408.402344 239.40625 409.222656 C 239.753906 410.046875 240.183594 410.828125 240.6875 411.570312 C 241.191406 412.308594 241.761719 412.992188 242.398438 413.617188 C 243.039062 414.246094 243.734375 414.804688 244.480469 415.296875 C 245.230469 415.785156 246.019531 416.199219 246.847656 416.535156 C 247.679688 416.867188 248.53125 417.121094 249.414062 417.285156 C 250.292969 417.453125 251.179688 417.535156 252.074219 417.527344 Z M 264.425781 220.316406 L 371.238281 220.316406 L 371.238281 230.914062 L 264.425781 230.914062 Z M 264.425781 252.113281 L 371.238281 252.113281 L 371.238281 262.832031 L 264.425781 262.832031 Z M 264.425781 284.015625 L 371.238281 284.015625 L 371.238281 294.695312 L 264.425781 294.695312 Z M 264.425781 315.917969 L 371.238281 315.917969 L 371.238281 326.386719 L 264.425781 326.386719 Z M 264.425781 315.917969 " fill-opacity="1" fill-rule="nonzero"/></g><path fill="#ffd43b" d="M 340.539062 374.222656 L 340.539062 410.105469 L 365.269531 385.457031 L 389.824219 360.644531 L 354.105469 360.644531 C 353.214844 360.644531 352.328125 360.726562 351.453125 360.902344 C 350.578125 361.074219 349.730469 361.328125 348.90625 361.667969 C 348.082031 362.011719 347.296875 362.429688 346.554688 362.921875 C 345.8125 363.417969 345.128906 363.980469 344.496094 364.613281 C 343.867188 365.242188 343.304688 365.929688 342.808594 366.671875 C 342.316406 367.414062 341.898438 368.199219 341.558594 369.023438 C 341.21875 369.847656 340.964844 370.699219 340.792969 371.574219 C 340.621094 372.449219 340.535156 373.332031 340.539062 374.222656 Z M 340.539062 374.222656 " fill-opacity="1" fill-rule="nonzero"/></svg>